M48
INCH,TZ
T1C0.039
T2C0.043
T3C0.075
T4C0.120
%
G90
G05
T1
X51950Y-40600
X52250Y-38100
X53400Y-45000
X55450Y-39350
X55950Y-40600
X56100Y-47600
X56250Y-38100
X57400Y-45000
X59000Y-46100
X59450Y-39350
X60100Y-47600
X60700Y-39600
X60700Y-43600
X60700Y-44800
X63000Y-46100
X64700Y-44800
T2
X63319Y-38200
X64500Y-38200
T3
X47700Y-41600
X47700Y-43600
X48700Y-42600
X49700Y-41600
X49700Y-43600
X68600Y-41600
X68600Y-43600
X69600Y-42600
X70600Y-41600
X70600Y-43600
T4
X48000Y-38100
X48000Y-47100
X70000Y-38100
X70000Y-47100
T0
M30
