G04 #@! TF.FileFunction,Soldermask,Top*
%FSLAX46Y46*%
G04 Gerber Fmt 4.6, Leading zero omitted, Abs format (unit mm)*
G04 Created by KiCad (PCBNEW 4.0.1-3.201512221401+6198~38~ubuntu15.10.1-stable) date Tue 19 Jan 2016 04:32:07 PM PST*
%MOMM*%
G01*
G04 APERTURE LIST*
%ADD10C,0.100000*%
%ADD11R,1.549400X1.800860*%
%ADD12R,1.000000X1.250000*%
%ADD13R,1.250000X1.000000*%
%ADD14C,3.048000*%
%ADD15R,1.500000X1.250000*%
%ADD16C,1.500000*%
%ADD17C,3.100000*%
%ADD18C,1.998980*%
%ADD19R,1.650000X0.760000*%
%ADD20R,2.540000X1.650000*%
%ADD21R,1.143000X0.508000*%
%ADD22C,4.064000*%
G04 APERTURE END LIST*
D10*
D11*
X148623020Y-94488000D03*
X146270980Y-94488000D03*
D12*
X147812000Y-104140000D03*
X145812000Y-104140000D03*
D13*
X168656000Y-109712000D03*
X168656000Y-107712000D03*
D14*
X123698000Y-108204000D03*
X121158000Y-110744000D03*
X121158000Y-105664000D03*
X126238000Y-105664000D03*
X126238000Y-110744000D03*
X176784000Y-108204000D03*
X179324000Y-105664000D03*
X179324000Y-110744000D03*
X174244000Y-110744000D03*
X174244000Y-105664000D03*
D15*
X154198000Y-94488000D03*
X156698000Y-94488000D03*
D16*
X160830000Y-97028000D03*
X163830000Y-97028000D03*
D17*
X168150000Y-97028000D03*
D18*
X142113000Y-103124000D03*
X131953000Y-103124000D03*
X145796000Y-114300000D03*
X135636000Y-114300000D03*
X154178000Y-113792000D03*
X164338000Y-113792000D03*
X154178000Y-100584000D03*
X154178000Y-110744000D03*
X132715000Y-96774000D03*
X142875000Y-96774000D03*
X152654000Y-120904000D03*
X142494000Y-120904000D03*
X140843000Y-99949000D03*
X151003000Y-99949000D03*
X160020000Y-117094000D03*
X149860000Y-117094000D03*
D19*
X134620000Y-106934000D03*
X134620000Y-109474000D03*
X137795000Y-106934000D03*
X137795000Y-108204000D03*
X137795000Y-109474000D03*
D20*
X159512000Y-105664000D03*
X164592000Y-105664000D03*
X159512000Y-108204000D03*
X159512000Y-110744000D03*
X164592000Y-110744000D03*
X164592000Y-108204000D03*
D21*
X149987000Y-106807000D03*
X149987000Y-108077000D03*
X149987000Y-109347000D03*
X149987000Y-110617000D03*
X143637000Y-110617000D03*
X143637000Y-109347000D03*
X143637000Y-108077000D03*
X143637000Y-106807000D03*
D22*
X121920000Y-96774000D03*
X121920000Y-119634000D03*
X177800000Y-119634000D03*
X177800000Y-96774000D03*
M02*
